# xmcd
#
# Track frame offsets:
#	150
#	16803
#	90868
#	101277
#	112187
#	121953
#	127791
#
# Disc length: 2516 seconds
#
# Revision: 1
# Processed by: cddbd v1.5.2PL0 Copyright (c) Steve Scherf et al.
# Submitted via: audiograbber 1.83.01
#
DISCID=4509d207
DTITLE=Lorne Greene - Have a Happy Holiday
DYEAR=1965
DGENRE=Christmas
TTITLE0='Twas The Night Before Christmas (A Visit From St. Nicholas)
TTITLE1=The Gift Of The Magi
TTITLE2=(There's No Place Like) Home For The Holidays
TTITLE3=Jingle Bells
TTITLE4=Christmas Is A-Comin' (May God Bless You)
TTITLE5=We Wish You A Merry Christmas
TTITLE6=The Holy Night - A Christmas Cantata
EXTD=
EXTT0=
EXTT1=
EXTT2=
EXTT3=
EXTT4=
EXTT5=
EXTT6=
PLAYORDER=
